# xmcd
#
# Track frame offsets: 
#        150
#        20158
#        48067
#        61010
#        78989
#        89132
#        104128
#        123970
#        138393
#        157738
#        178022
#        192028
#
# Disc length: 2718 seconds
#
# Revision: 1
# Processed by: cddbd v1.5.2PL0 Copyright (c) Steve Scherf et al.
# Submitted via: ExactAudioCopy v1.0b4
#
DISCID=990a9c0c
DTITLE=Chris Farlowe and the Thunderbirds - Out of the blue
DYEAR=1900
DGENRE=Blues
TTITLE0=I aint't superstitious
TTITLE1=Gambler Blues
TTITLE2=Them that's got it
TTITLE3=Ain't no love in the heart of the city
TTITLE4=It's all wrong
TTITLE5=Key to my kingdom
TTITLE6=The thrill is gone
TTITLE7=Watch your step
TTITLE8=All the way lover
TTITLE9=Shakey ground
TTITLE10=Circles round the sun
TTITLE11=Medicated goo
EXTD=
EXTT0=
EXTT1=
EXTT2=
EXTT3=
EXTT4=
EXTT5=
EXTT6=
EXTT7=
EXTT8=
EXTT9=
EXTT10=
EXTT11=
PLAYORDER=
